<svg width="656" height="185" viewBox="0 0 656 185" fill="none" xmlns="http://www.w3.org/2000/svg">
<mask id="mask0_13_1198" style="mask-type:alpha" maskUnits="userSpaceOnUse" x="0" y="0" width="656" height="185">
<rect x="0.0419922" y="0.000198364" width="655.215" height="184.27" rx="18" fill="#045AFC"/>
</mask>
<g mask="url(#mask0_13_1198)">
<g opacity="0.1">
<path d="M443.808 105.906L481.405 137.454C487.519 142.584 490.432 150.586 489.046 158.446L480.523 206.78C479.137 214.64 473.663 221.164 466.164 223.893L420.044 240.679C412.544 243.409 404.158 241.93 398.044 236.8L360.447 205.253C354.333 200.122 351.42 192.12 352.806 184.26L361.329 135.926C362.715 128.066 368.189 121.543 375.689 118.813L421.808 102.027C429.308 99.2973 437.694 100.776 443.808 105.906Z" stroke="white" stroke-width="4"/>
<path d="M546.565 124.025L584.162 155.573C590.276 160.703 593.189 168.705 591.803 176.565L583.28 224.899C581.894 232.759 576.42 239.282 568.92 242.012L522.801 258.798C515.301 261.528 506.914 260.049 500.8 254.919L463.204 223.371C457.09 218.241 454.177 210.239 455.563 202.379L464.085 154.045C465.471 146.185 470.945 139.662 478.445 136.932L524.565 120.146C532.065 117.416 540.451 118.895 546.565 124.025Z" stroke="white" stroke-width="4"/>
<path d="M464.161 -9.51918L501.758 22.0283C507.872 27.1585 510.784 35.1609 509.398 43.021L500.876 91.3545C499.49 99.2145 494.016 105.738 486.516 108.468L440.397 125.254C432.897 127.984 424.51 126.505 418.396 121.375L380.799 89.8272C374.685 84.6969 371.773 76.6945 373.159 68.8344L381.681 20.501C383.067 12.6409 388.541 6.11732 396.041 3.38755L442.16 -13.3985C449.66 -16.1283 458.047 -14.6495 464.161 -9.51918Z" stroke="white" stroke-width="4"/>
<path d="M566.918 8.59956L604.515 40.147C610.629 45.2773 613.541 53.2797 612.155 61.1397L603.633 109.473C602.247 117.333 596.773 123.857 589.273 126.587L543.154 143.373C535.654 146.102 527.267 144.624 521.153 139.493L483.556 107.946C477.442 102.816 474.53 94.8133 475.916 86.9532L484.438 38.6197C485.824 30.7597 491.298 24.2361 498.798 21.5063L544.917 4.72026C552.417 1.99049 560.804 3.46927 566.918 8.59956Z" stroke="white" stroke-width="4"/>
<path d="M645.099 141.399L682.696 172.947C688.81 178.077 691.723 186.079 690.337 193.939L681.814 242.273C680.428 250.133 674.954 256.657 667.454 259.386L621.335 276.172C613.835 278.902 605.448 277.423 599.334 272.293L561.738 240.746C555.624 235.615 552.711 227.613 554.097 219.753L562.619 171.419C564.005 163.559 569.479 157.036 576.979 154.306L623.099 137.52C630.599 134.79 638.985 136.269 645.099 141.399Z" stroke="white" stroke-width="4"/>
<path d="M747.856 159.518L785.453 191.065C791.567 196.196 794.479 204.198 793.093 212.058L784.571 260.392C783.185 268.252 777.711 274.775 770.211 277.505L724.092 294.291C716.592 297.021 708.205 295.542 702.091 290.412L664.494 258.864C658.38 253.734 655.468 245.732 656.854 237.872L665.376 189.538C666.762 181.678 672.236 175.155 679.736 172.425L725.855 155.639C733.355 152.909 741.742 154.388 747.856 159.518Z" stroke="white" stroke-width="4"/>
<path d="M665.452 25.9738L703.049 57.5212C709.163 62.6515 712.075 70.6539 710.689 78.5139L702.167 126.847C700.781 134.707 695.307 141.231 687.807 143.961L641.688 160.747C634.188 163.477 625.801 161.998 619.687 156.868L582.09 125.32C575.976 120.19 573.064 112.187 574.45 104.327L582.972 55.9939C584.358 48.1339 589.832 41.6103 597.332 38.8805L643.451 22.0945C650.951 19.3647 659.338 20.8435 665.452 25.9738Z" stroke="white" stroke-width="4"/>
<path d="M35.5736 33.9233L73.1704 65.4708C79.2844 70.6011 82.197 78.6034 80.8111 86.4635L72.2886 134.797C70.9026 142.657 65.4287 149.181 57.9287 151.91L11.8094 168.696C4.30946 171.426 -4.07711 169.947 -10.1912 164.817L-47.7879 133.27C-53.902 128.139 -56.8146 120.137 -55.4286 112.277L-46.9061 63.9435C-45.5202 56.0834 -40.0463 49.5598 -32.5463 46.8301L13.573 30.044C21.073 27.3143 29.4595 28.793 35.5736 33.9233Z" stroke="white" stroke-width="4"/>
<path d="M138.33 52.0421L175.927 83.5895C182.041 88.7198 184.954 96.7222 183.568 104.582L175.045 152.916C173.659 160.776 168.186 167.299 160.686 170.029L114.566 186.815C107.066 189.545 98.6797 188.066 92.5657 182.936L54.9689 151.388C48.8549 146.258 45.9423 138.256 47.3282 130.396L55.8507 82.0622C57.2366 74.2022 62.7106 67.6786 70.2106 64.9488L116.33 48.1628C123.83 45.433 132.216 46.9118 138.33 52.0421Z" stroke="white" stroke-width="4"/>
<path d="M55.9262 -81.5022L93.523 -49.9547C99.6371 -44.8245 102.55 -36.8221 101.164 -28.962L92.6412 19.3715C91.2553 27.2315 85.7813 33.7551 78.2814 36.4849L32.1621 53.2709C24.6621 56.0007 16.2755 54.5219 10.1615 49.3916L-27.4353 17.8442C-33.5493 12.7139 -36.4619 4.71151 -35.076 -3.14855L-26.5535 -51.482C-25.1675 -59.3421 -19.6936 -65.8657 -12.1936 -68.5954L33.9257 -85.3815C41.4256 -88.1113 49.8122 -86.6325 55.9262 -81.5022Z" stroke="white" stroke-width="4"/>
<path d="M158.683 -63.3834L196.28 -31.836C202.394 -26.7057 205.307 -18.7033 203.921 -10.8433L195.398 37.4902C194.012 45.3503 188.538 51.8738 181.038 54.6036L134.919 71.3897C127.419 74.1194 119.032 72.6406 112.918 67.5103L75.3216 35.9629C69.2075 30.8326 66.2949 22.8303 67.6809 14.9702L76.2034 -33.3633C77.5893 -41.2233 83.0632 -47.7469 90.5632 -50.4767L136.682 -67.2627C144.182 -69.9925 152.569 -68.5137 158.683 -63.3834Z" stroke="white" stroke-width="4"/>
<path d="M236.864 69.4163L274.461 100.964C280.575 106.094 283.488 114.096 282.102 121.957L273.579 170.29C272.193 178.15 266.72 184.674 259.22 187.403L213.1 204.189C205.6 206.919 197.214 205.44 191.1 200.31L153.503 168.763C147.389 163.632 144.476 155.63 145.862 147.77L154.385 99.4365C155.771 91.5764 161.245 85.0529 168.745 82.3231L214.864 65.537C222.364 62.8073 230.75 64.2861 236.864 69.4163Z" stroke="white" stroke-width="4"/>
<path d="M339.621 87.5351L377.218 119.083C383.332 124.213 386.245 132.215 384.859 140.075L376.336 188.409C374.95 196.269 369.476 202.792 361.976 205.522L315.857 222.308C308.357 225.038 299.97 223.559 293.856 218.429L256.26 186.881C250.146 181.751 247.233 173.749 248.619 165.889L257.141 117.555C258.527 109.695 264.001 103.172 271.501 100.442L317.621 83.6558C325.121 80.926 333.507 82.4048 339.621 87.5351Z" stroke="white" stroke-width="4"/>
<path d="M257.217 -46.0092L294.814 -14.4617C300.928 -9.33145 303.84 -1.32907 302.455 6.53099L293.932 54.8645C292.546 62.7245 287.072 69.2481 279.572 71.9779L233.453 88.7639C225.953 91.4937 217.566 90.0149 211.452 84.8846L173.856 53.3372C167.741 48.2069 164.829 40.2045 166.215 32.3445L174.737 -15.989C176.123 -23.8491 181.597 -30.3727 189.097 -33.1024L235.216 -49.8885C242.716 -52.6182 251.103 -51.1395 257.217 -46.0092Z" stroke="white" stroke-width="4"/>
<path d="M359.974 -27.8904L397.571 3.65701C403.685 8.7873 406.597 16.7897 405.211 24.6497L396.689 72.9832C395.303 80.8433 389.829 87.3669 382.329 90.0966L336.21 106.883C328.71 109.612 320.323 108.134 314.209 103.003L276.612 71.4559C270.498 66.3256 267.586 58.3233 268.972 50.4632L277.494 2.12972C278.88 -5.73034 284.354 -12.2539 291.854 -14.9837L337.973 -31.7697C345.473 -34.4995 353.86 -33.0207 359.974 -27.8904Z" stroke="white" stroke-width="4"/>
</g>
</g>
</svg>
