<svg width="356" height="178" viewBox="0 0 356 178" fill="none" xmlns="http://www.w3.org/2000/svg">
<path d="M1 97.9635L11.8508 90.5566C13.2664 89.5902 15.1398 89.6305 16.5126 90.6569L24.038 96.283C25.3876 97.292 27.2241 97.3496 28.6343 96.4271L37.6992 90.4971C39.1242 89.5649 40.9825 89.6343 42.3339 90.6702L55.7833 100.979C57.5705 102.349 60.1351 101.979 61.4623 100.16L66.225 93.6321C66.7821 92.8685 67.5911 92.3262 68.5091 92.101L102.324 83.8057C103.315 83.5626 104.362 83.7065 105.25 84.208L110.983 87.4435C112.551 88.3286 114.517 88.0597 115.79 86.7861L129.19 73.3796C131.077 71.4913 134.281 72.1465 135.275 74.6243V74.6243C136.221 76.9819 139.199 77.7193 141.136 76.0756L157.339 62.3248C158.063 61.7099 158.983 61.3723 159.933 61.3723H168.618C170.141 61.3723 171.532 62.2345 172.21 63.5981L176.396 72.0246C177.523 74.2923 180.443 74.961 182.444 73.4095L202.627 57.7616C203.748 56.8928 205.244 56.6804 206.562 57.203L214.836 60.4835C216.216 61.0304 217.784 60.7709 218.914 59.809L240.091 41.7779C240.816 41.1602 241.737 40.821 242.69 40.821H258.354C259.168 40.821 259.963 41.0687 260.632 41.5313L270.326 48.2246C272.056 49.4194 274.415 49.0747 275.732 47.4347L296.78 21.207C297.271 20.5956 297.93 20.1415 298.676 19.9007L355 1.72357" stroke="url(#paint0_linear_13_1047)" stroke-width="3"/>
<path d="M14.2175 88.941L1 97.9635V177.903H355V1.72357L297.532 20.2698L273.396 50.3448L259.604 40.821H241.214L217.078 61.3723L204.435 56.3598L178.575 76.4097L171.104 61.3723H158.461L137.198 79.4172L133.175 69.3922L113.636 88.941L103.867 83.4272L67.0877 92.4497L59.0422 103.477L40.0779 88.941L26.2857 97.9635L14.2175 88.941Z" fill="url(#paint1_linear_13_1047)"/>
<defs>
<linearGradient id="paint0_linear_13_1047" x1="364.331" y1="-2.06829" x2="-19.5499" y2="103.477" gradientUnits="userSpaceOnUse">
<stop stop-color="#55C960" stop-opacity="0"/>
<stop offset="0.0001" stop-color="#55C960" stop-opacity="0"/>
<stop offset="0.510417" stop-color="#55C960"/>
<stop offset="0.963542" stop-color="#55C960" stop-opacity="0"/>
</linearGradient>
<linearGradient id="paint1_linear_13_1047" x1="178" y1="1.72357" x2="178" y2="223.615" gradientUnits="userSpaceOnUse">
<stop offset="0.210124" stop-color="#55C960" stop-opacity="0.18"/>
<stop offset="0.577181" stop-color="#55C960" stop-opacity="0"/>
</linearGradient>
</defs>
</svg>
